<?xml version="1.0" encoding="utf-8"?>
<!-- Generator: Adobe Illustrator 16.0.0, SVG Export Plug-In . SVG Version: 6.00 Build 0)  -->
<!DOCTYPE svg PUBLIC "-//W3C//DTD SVG 1.1//EN" "http://www.w3.org/Graphics/SVG/1.1/DTD/svg11.dtd">
<svg version="1.1" id="Layer_1" xmlns="http://www.w3.org/2000/svg" xmlns:xlink="http://www.w3.org/1999/xlink" x="0px" y="0px"
	 width="100px" height="100px" viewBox="0 0 100 100" enable-background="new 0 0 100 100" xml:space="preserve">
<g>
	<g>
		<path d="M66.177,70.731c-0.289,0-0.57-0.125-0.763-0.354l-5.624-6.646H32.764c-3.678,0-6.669-2.992-6.669-6.67V36.067
			c0-3.678,2.992-6.67,6.669-6.67h35.803c3.678,0,6.669,2.992,6.669,6.67v20.994c0,3.678-2.992,6.67-6.669,6.67h-1.391v6
			c0,0.419-0.262,0.794-0.656,0.938C66.408,70.711,66.292,70.731,66.177,70.731z M32.764,31.397c-2.575,0-4.669,2.095-4.669,4.67
			v20.994c0,2.574,2.095,4.67,4.669,4.67h27.489c0.294,0,0.573,0.129,0.763,0.354l4.16,4.916v-4.27c0-0.553,0.448-1,1-1h2.391
			c2.575,0,4.669-2.096,4.669-4.67V36.067c0-2.575-2.095-4.67-4.669-4.67H32.764z"/>
	</g>
	<g>
		<circle cx="42.968" cy="46.856" r="2.339"/>
	</g>
	<g>
		<circle cx="50.666" cy="46.856" r="2.339"/>
	</g>
	<g>
		<circle cx="58.843" cy="46.856" r="2.339"/>
	</g>
</g>
</svg>
